<?xml version="1.0" encoding="UTF-8" standalone="no"?>
<svg
   width="422.94165"
   zoomAndPan="magnify"
   viewBox="0 0 317.20624 72.41872"
   height="96.558296"
   preserveAspectRatio="xMidYMid"
   version="1.0"
   id="svg53"
   sodipodi:docname="alsuwq.svg"
   inkscape:version="1.2.1 (9c6d41e410, 2022-07-14)"
   xmlns:inkscape="http://www.inkscape.org/namespaces/inkscape"
   xmlns:sodipodi="http://sodipodi.sourceforge.net/DTD/sodipodi-0.dtd"
   xmlns="http://www.w3.org/2000/svg"
   xmlns:svg="http://www.w3.org/2000/svg">
  <sodipodi:namedview
     id="namedview55"
     pagecolor="#ffffff"
     bordercolor="#000000"
     borderopacity="0.25"
     inkscape:showpageshadow="2"
     inkscape:pageopacity="0.0"
     inkscape:pagecheckerboard="0"
     inkscape:deskcolor="#d1d1d1"
     showgrid="false"
     inkscape:zoom="1.658"
     inkscape:cx="188.17853"
     inkscape:cy="47.647768"
     inkscape:window-width="1920"
     inkscape:window-height="1009"
     inkscape:window-x="1912"
     inkscape:window-y="-8"
     inkscape:window-maximized="1"
     inkscape:current-layer="svg53" />
  <defs
     id="defs7">
    <g
       id="g2" />
    <clipPath
       id="0cea03cb7c">
      <path
         d="m 271.77734,151.89062 h 75.75 v 71.25 h -75.75 z m 0,0"
         clip-rule="nonzero"
         id="path4" />
    </clipPath>
  </defs>
  <g
     clip-path="url(#0cea03cb7c)"
     id="g11"
     transform="translate(-30.321113,-151.9375)">
    <path
       fill="#00bf63"
       d="m 345.10156,151.9375 h -70.89453 l -2.42969,66.32031 c 0,2.67188 2.17578,4.83985 4.85547,4.83985 h 66.04297 c 2.67969,0 4.85547,-2.16797 4.85547,-4.83985 z m -17.69531,14.77734 c -0.0312,0.0156 -0.0664,0.0195 -0.0977,0.0312 -1.05078,9.96485 -8.55859,17.71485 -17.64062,17.71485 -9.08203,0 -16.58594,-7.75 -17.63672,-17.71094 -0.0391,-0.0117 -0.0781,-0.0195 -0.11719,-0.0352 -1.10547,-0.44922 -1.88672,-1.52734 -1.88672,-2.79297 0,-1.26562 0.78125,-2.34375 1.88672,-2.79687 0.35156,-0.14453 0.73828,-0.22656 1.14453,-0.22656 0.4961,0 0.96485,0.125 1.37891,0.33593 0.98047,0.5 1.64844,1.51172 1.64844,2.6875 0,1.125 -0.625,2.10157 -1.54297,2.6211 0.9414,8.66797 7.36328,15.39844 15.125,15.39844 7.75781,0 14.17578,-6.72266 15.12109,-15.39063 -0.92969,-0.51562 -1.5625,-1.49609 -1.5625,-2.62891 0,-1.17578 0.67188,-2.1875 1.65235,-2.6875 0.41406,-0.21093 0.88281,-0.33593 1.3789,-0.33593 0.40235,0 0.78906,0.082 1.14453,0.22656 1.10547,0.44922 1.88282,1.53125 1.88282,2.79687 0.004,1.26563 -0.77735,2.34375 -1.87891,2.79297 z m 0,0"
       fill-opacity="1"
       fill-rule="nonzero"
       id="path9" />
  </g>
  <g
     fill="#00bf63"
     fill-opacity="1"
     id="g19"
     transform="translate(-30.321113,-151.9375)">
    <g
       transform="translate(27.750801,211.01247)"
       id="g17">
      <g
         id="g15">
        <path
           d="m 52.089844,-42.925781 h -9.566406 v -8.839844 h 9.566406 z m -14.632813,0 h -9.484375 v -8.839844 h 9.484375 z m 20.820313,29.902343 c 0,14.871094 -12.136719,26.367188 -27.570313,26.367188 -15.433593,0 -28.136719,-11.011719 -28.136719,-26.367188 V -28.375 h 10.855469 v 14.386719 c 0,10.613281 6.1875,17.203125 17.039063,17.203125 6.992187,0 11.976562,-2.492188 14.871094,-7.554688 -1.527344,0.320313 -3.136719,0.480469 -4.824219,0.480469 -10.851563,0 -17.84375,-6.75 -17.84375,-17.601563 0,-10.691406 6.832031,-17.523437 17.523437,-17.523437 11.011719,0 18.085938,6.589844 18.085938,17.28125 z m -10.691406,-8.117187 c 0,-6.027344 -2.25,-9.082031 -6.832032,-9.082031 h -0.804687 c -4.019531,0 -6.589844,3.695312 -6.589844,8.679687 0,5.226563 2.652344,8.921875 7.152344,8.921875 4.339843,0 7.074219,-3.535156 7.074219,-8.519531 z m 0,0"
           id="path13" />
      </g>
    </g>
  </g>
  <g
     fill="#00bf63"
     fill-opacity="1"
     id="g27"
     transform="translate(-30.321113,-151.9375)">
    <g
       transform="translate(88.679993,211.01247)"
       id="g25">
      <g
         id="g23">
        <path
           d="M 51.523438,0 H 40.914062 C 39.628906,8.84375 33.519531,13.261719 22.585938,13.261719 h -1.203126 v -9 h 0.964844 c 4.339844,0 6.910156,-1.609375 7.796875,-4.742188 C 29.257812,-0.160156 27.007812,0 23.230469,0 12.699219,0 4.984375,-7.636719 4.984375,-18.328125 c 0,-10.851563 7.554687,-18.164063 18.246094,-18.164063 10.289062,0 17.84375,7.714844 17.84375,18.40625 v 7.316407 H 51.523438 Z M 29.820312,-10.769531 v -7.800781 c 0,-4.742188 -2.8125,-7.796876 -6.910156,-7.796876 -4.261718,0 -6.511718,3.296876 -6.511718,7.558594 0,4.582032 2.734374,8.039063 6.914062,8.039063 z m 0,0"
           id="path21" />
      </g>
    </g>
  </g>
  <g
     fill="#00bf63"
     fill-opacity="1"
     id="g35"
     transform="translate(-30.321113,-151.9375)">
    <g
       transform="translate(138.75768,211.01247)"
       id="g33">
      <g
         id="g31">
        <path
           d="M 81.828125,0 H -0.964844 v -10.769531 h 8.519532 c 3.699218,0 5.707031,-2.011719 5.707031,-7.636719 v -18.007812 h 11.335937 v 17.523437 c 0,2.976563 -0.484375,5.707031 -1.367187,8.121094 h 7.152343 c 3.78125,0 5.707032,-2.414063 5.707032,-7.234375 V -36.414062 H 47.34375 v 17.523437 c 0,2.976563 -0.480469,5.707031 -1.363281,8.121094 h 7.152343 c 3.777344,0 5.707032,-2.414063 5.707032,-7.234375 v -18.410156 h 11.335937 v 17.445312 c 0,2.972656 -0.484375,5.707031 -1.449219,8.199219 h 13.101563 z m 0,0"
           id="path29" />
      </g>
    </g>
  </g>
  <g
     fill="#00bf63"
     fill-opacity="1"
     id="g43"
     transform="translate(-30.321113,-151.9375)">
    <g
       transform="translate(219.54111,211.01247)"
       id="g41">
      <g
         id="g39">
        <path
           d="m 22.667969,-15.515625 c 0,4.261719 -1.207031,7.800781 -3.535157,10.613281 C 16.476562,-1.609375 12.78125,0 8.039062,0 H -2.570312 v -10.769531 h 8.277343 c 3.777344,0 5.707031,-2.65625 5.707031,-7.878907 v -33.117187 h 11.253907 z m 0,0"
           id="path37" />
      </g>
    </g>
  </g>
  <g
     fill="#00bf63"
     fill-opacity="1"
     id="g51"
     transform="translate(-30.321113,-151.9375)">
    <g
       transform="translate(244.78091,211.01247)"
       id="g49">
      <g
         id="g47">
        <path
           d="M 5.625,-51.847656 H 16.878906 V 0 H 5.625 Z m 0,0"
           id="path45" />
      </g>
    </g>
  </g>
</svg>
